<svg xmlns="http://www.w3.org/2000/svg" xmlns:sodipodi="http://sodipodi.sourceforge.net/DTD/sodipodi-0.dtd" viewBox="0 0 100 125" x="0px" y="0px"><path d="M 55.473923,5 C 30.360743,4.7530476 10,25.147345 10,50 10,74.852656 30.359529,95 55.473923,95 69.286635,95 81.659799,88.903906 90,79.285156 L 61.158167,50 C 92.202622,29.422328 91.576677,5.3550193 55.473923,5 z m 11.368488,10.600313 c 3.502909,0 6.340766,2.809688 6.340766,6.274687 0,3.465001 -2.839283,6.274687 -6.340766,6.274687 -3.501496,0 -6.340778,-2.809686 -6.340778,-6.274687 0,-3.464999 2.839282,-6.274687 6.340778,-6.274687 z"/><text x="0" y="115" fill="#000000" font-size="5px" font-weight="bold" font-family="'Helvetica Neue', Helvetica, Arial-Unicode, Arial, Sans-serif">Created by Magicon</text><text x="0" y="120" fill="#000000" font-size="5px" font-weight="bold" font-family="'Helvetica Neue', Helvetica, Arial-Unicode, Arial, Sans-serif">from the Noun Project</text></svg>