<svg width="21" height="20" viewBox="0 0 21 20" fill="none" xmlns="http://www.w3.org/2000/svg">
<g clip-path="url(#clip0_297_1083)">
<path fill-rule="evenodd" clip-rule="evenodd" d="M10.1851 18.75C5.35256 18.75 1.43506 14.8313 1.43506 10C1.43506 5.16875 5.35256 1.25 10.1851 1.25C15.0176 1.25 18.9351 5.16875 18.9351 10C18.9351 14.8313 15.0176 18.75 10.1851 18.75ZM10.1851 0C4.66193 0 0.185059 4.475 0.185059 10C0.185059 15.525 4.66193 20 10.1851 20C15.7082 20 20.1851 15.525 20.1851 10C20.1851 4.475 15.7082 0 10.1851 0ZM13.9351 9.375H10.8101V6.25C10.8101 5.90625 10.5307 5.625 10.1851 5.625C9.83943 5.625 9.56006 5.90625 9.56006 6.25V9.375H6.43506C6.08943 9.375 5.81006 9.65625 5.81006 10C5.81006 10.3438 6.08943 10.625 6.43506 10.625H9.56006V13.75C9.56006 14.0938 9.83943 14.375 10.1851 14.375C10.5307 14.375 10.8101 14.0938 10.8101 13.75V10.625H13.9351C14.2807 10.625 14.5601 10.3438 14.5601 10C14.5601 9.65625 14.2807 9.375 13.9351 9.375Z" fill="black" fill-opacity="0.3"/>
</g>
<defs>
<clipPath id="clip0_297_1083">
<rect width="20" height="20" fill="white" transform="translate(0.185059)"/>
</clipPath>
</defs>
</svg>
