<svg width="18" height="18" viewBox="0 0 18 18" fill="none" xmlns="http://www.w3.org/2000/svg">
<rect width="18" height="18" rx="8" fill="#F5F5F5"/>
<path d="M5.01802 12.2182C4.80714 12.4291 4.80714 12.7709 5.01802 12.9818C5.2289 13.1927 5.57082 13.1927 5.7817 12.9818L5.01802 12.2182ZM9.38168 9.3818C9.59257 9.17091 9.59257 8.82906 9.38168 8.61817C9.17079 8.40728 8.82893 8.40728 8.61805 8.61817L9.38168 9.3818ZM8.61805 8.61817C8.40716 8.82906 8.40716 9.17091 8.61805 9.3818C8.82893 9.59269 9.17079 9.59269 9.38168 9.3818L8.61805 8.61817ZM12.9817 5.78182C13.1926 5.57094 13.1926 5.22903 12.9817 5.01815C12.7708 4.80727 12.4289 4.80727 12.218 5.01815L12.9817 5.78182ZM9.38168 8.61817C9.17079 8.40728 8.82893 8.40728 8.61805 8.61817C8.40716 8.82906 8.40716 9.17091 8.61805 9.3818L9.38168 8.61817ZM12.218 12.9818C12.4289 13.1927 12.7708 13.1927 12.9817 12.9818C13.1926 12.7709 13.1926 12.4291 12.9817 12.2182L12.218 12.9818ZM8.61805 9.3818C8.82893 9.59269 9.17079 9.59269 9.38168 9.3818C9.59257 9.17091 9.59257 8.82906 9.38168 8.61817L8.61805 9.3818ZM5.7817 5.01815C5.57082 4.80727 5.2289 4.80727 5.01802 5.01815C4.80714 5.22903 4.80714 5.57094 5.01802 5.78182L5.7817 5.01815ZM5.7817 12.9818L9.38168 9.3818L8.61805 8.61817L5.01802 12.2182L5.7817 12.9818ZM9.38168 9.3818L12.9817 5.78182L12.218 5.01815L8.61805 8.61817L9.38168 9.3818ZM8.61805 9.3818L12.218 12.9818L12.9817 12.2182L9.38168 8.61817L8.61805 9.3818ZM9.38168 8.61817L5.7817 5.01815L5.01802 5.78182L8.61805 9.3818L9.38168 8.61817Z" fill="black"/>
</svg>
